<svg width="310" height="310" viewBox="0 0 310 310" fill="none" xmlns="http://www.w3.org/2000/svg">
<g clip-path="url(#clip0_2:69)">
<path d="M272.091 241.779H37.7182H15.6958L4.42859 261.286H305.571L155 0L32.0846 213.032H54.6189L155 38.4999L272.091 241.779Z" fill="black" stroke="black"/>
<path d="M134.243 234.593H113.43V122.657H118.425L126.675 132.42C128.542 130.654 130.585 128.989 132.805 127.425C135.025 125.861 137.321 124.524 139.693 123.414C142.114 122.253 144.612 121.345 147.185 120.689C149.758 120.033 152.357 119.706 154.98 119.706C160.682 119.706 166.03 120.74 171.026 122.809C176.071 124.827 180.461 127.703 184.194 131.436C187.979 135.17 190.956 139.686 193.125 144.984C195.295 150.231 196.38 156.059 196.38 162.467C196.38 169.127 195.295 175.131 193.125 180.479C190.956 185.777 187.979 190.293 184.194 194.027C180.461 197.71 176.071 200.535 171.026 202.503C166.03 204.471 160.682 205.455 154.98 205.455C153.164 205.455 151.348 205.253 149.531 204.849C147.765 204.446 145.999 203.916 144.233 203.26C142.518 202.554 140.802 201.772 139.087 200.914C137.422 200.056 135.807 199.173 134.243 198.265V234.593ZM175.642 162.467C175.642 159.036 175.087 155.958 173.977 153.233C172.918 150.509 171.454 148.213 169.587 146.346C167.721 144.429 165.526 142.966 163.003 141.956C160.48 140.947 157.806 140.443 154.98 140.443C152.155 140.443 149.481 140.947 146.958 141.956C144.486 142.966 142.316 144.429 140.449 146.346C138.582 148.213 137.094 150.509 135.984 153.233C134.924 155.958 134.395 159.036 134.395 162.467C134.395 165.746 134.924 168.748 135.984 171.473C137.094 174.198 138.582 176.518 140.449 178.436C142.316 180.353 144.486 181.842 146.958 182.901C149.481 183.961 152.155 184.491 154.98 184.491C157.806 184.491 160.48 183.961 163.003 182.901C165.526 181.842 167.721 180.353 169.587 178.436C171.454 176.518 172.918 174.198 173.977 171.473C175.087 168.748 175.642 165.746 175.642 162.467Z" fill="black"/>
</g>
<defs>
<clipPath id="clip0_2:69">
<rect width="310" height="310" fill="white"/>
</clipPath>
</defs>
</svg>
