<svg width="300" height="300" xmlns="http://www.w3.org/2000/svg">
  <path d="M186.44 182.62c-8.51 8.936-20.08 13.875-32.578 13.875l-1.09-.02a6.61 6.61 0 0 1-6.58-6.6c0-3.645 2.955-6.606 6.58-6.586h2.14c8.013 0 15.518-3.376 21.127-9.523 5.667-6.22 8.78-14.618 8.78-23.647 0-9.43-3.42-17.921-9.64-23.911-6.205-5.975-14.98-9.278-24.693-9.278h-20.1v72.276c0 4.866-2.917 7.406-7.021 7.406-4.544 0-6.225-2.863-9.713-6.678a89661.417 89661.417 0 0 1-55.102-61.112v67.673H45.016v-84.583c-.034-.269 0-.552 0-.82 0-4.105 3.342-7.447 7.466-7.447 3.986 0 5.57 2.37 7.27 4.3 1.7 1.905 56.758 63.911 56.758 63.911v-68.108h37.352c12.503 0 24.067 4.92 32.579 13.851 8.32 8.721 12.883 20.267 12.883 32.52s-4.563 23.799-12.883 32.505M255.13 196.5l-15.459-29.144h-21.17c-3.698 0-6.718-2.843-6.718-6.547 0-3.703 3.02-6.508 6.718-6.508l14.276.02-21.585-40.845a6.733 6.733 0 0 1 2.785-9.083 6.723 6.723 0 0 1 9.087 2.804l40.23 75.98h33.018a150.867 150.867 0 0 0 3.684-33.19c0-82.829-67.16-149.994-149.994-149.994C67.16-.007-.002 67.158-.002 149.987c0 82.849 67.16 150.009 150.01 150.009 66.607 0 123.077-43.42 142.64-103.496z"/>
</svg>
